<svg width="49" height="94" viewBox="0 0 49 94" fill="none" xmlns="http://www.w3.org/2000/svg">
<path d="M49 55.7517C49 45.2285 43.3655 35.9458 34.9576 30.7845C38.2849 27.1668 40.3394 22.3588 40.3824 17.09C40.3824 17.0702 40.3824 16.995 40.3824 16.9143V13.7053H35.7285V17.0093C35.7231 17.6887 35.6729 18.3753 35.5815 19.0476C35.5277 19.4384 35.1925 19.7235 34.8089 19.7235C34.773 19.7235 34.7371 19.7217 34.7013 19.7163C34.2728 19.6571 33.9734 19.2627 34.0326 18.8361C34.1151 18.2301 34.1599 17.6099 34.1653 16.9967V13.7053H29.4486V16.995C29.411 21.5359 26.1787 25.3418 21.9085 26.283V0H17.2384V2.29109C17.2384 2.72314 16.8889 3.07271 16.4568 3.07271C16.0248 3.07271 15.6752 2.72314 15.6752 2.29109V0H10.9765V26.4838H7.65278V31.1449C7.65278 31.1449 7.65636 31.1449 7.65815 31.1449H10.003C10.4351 31.1449 10.7847 31.4945 10.7847 31.9265C10.7847 32.3585 10.4351 32.7081 10.003 32.7081H7.65815C7.65815 32.7081 7.65457 32.7081 7.65278 32.7081V37.4176H10.9765V37.803C10.9765 43.0593 6.70084 47.3654 1.44638 47.3994H1V52.0802H1.48045C2.06667 52.0766 2.66006 52.0354 3.2409 51.9601C3.67115 51.9045 4.06196 52.2075 4.11754 52.6342C4.17311 53.0626 3.87193 53.4552 3.44347 53.5108C2.79989 53.5951 2.14196 53.6399 1.48762 53.6435H1.40336C1.40336 53.6435 1.38723 53.6435 1.38006 53.6435H1.00179V58.3332H1.38006C1.45535 58.3332 1.51272 58.3332 1.5181 58.3332C12.762 58.2597 21.9103 49.0487 21.9103 37.803V37.5467C30.985 38.633 38.0662 46.4116 38.0662 55.7517H42.79C42.79 55.7517 42.79 55.7517 42.79 55.7499C42.79 54.9916 42.7524 54.2297 42.6807 53.4839C42.6394 53.0537 42.9532 52.6718 43.3834 52.6306C43.8208 52.5858 44.1955 52.9031 44.2368 53.3333C44.3138 54.1293 44.3533 54.9432 44.3533 55.7517C44.3533 55.7517 44.3533 55.7517 44.3533 55.7535H49V55.7517ZM30.6623 26.2525C31.5694 25.2092 32.3188 24.0457 32.8889 22.7944C33.0681 22.4018 33.5324 22.2279 33.925 22.4072C34.3177 22.5864 34.4915 23.049 34.3123 23.4434C33.6794 24.8327 32.8494 26.1235 31.8419 27.2798C31.6877 27.4573 31.4708 27.5487 31.2521 27.5487C31.0692 27.5487 30.8882 27.4859 30.7394 27.3569C30.4131 27.0736 30.3791 26.5806 30.6623 26.2543V26.2525ZM15.6752 6.69221C15.6752 6.26017 16.0248 5.91058 16.4568 5.91058C16.8889 5.91058 17.2384 6.26017 17.2384 6.69221V11.0915C17.2384 11.5236 16.8889 11.8732 16.4568 11.8732C16.0248 11.8732 15.6752 11.5236 15.6752 11.0915V6.69221ZM11.7742 49.7622C10.6036 50.7787 9.29849 51.6141 7.89121 52.2487C7.78723 52.2953 7.67787 52.3186 7.57031 52.3186C7.27272 52.3186 6.98768 52.1465 6.85681 51.8579C6.67933 51.4635 6.85502 51.001 7.24762 50.8235C8.51507 50.2516 9.69288 49.4987 10.747 48.5826C11.0733 48.2994 11.5663 48.3352 11.8495 48.6597C12.1328 48.986 12.0969 49.479 11.7724 49.7622H11.7742ZM38.0035 40.4186C37.8547 40.553 37.6682 40.6194 37.4818 40.6194C37.2667 40.6194 37.0551 40.5315 36.8992 40.3594C36.6392 40.069 36.3685 39.7858 36.0942 39.5097C36.0422 39.4577 35.9867 39.4057 35.9347 39.3537C35.7249 39.1476 35.5116 38.9432 35.2947 38.7442C35.2086 38.6653 35.1208 38.5882 35.0347 38.5111C34.8734 38.3677 34.7067 38.2279 34.5417 38.0881C34.3392 37.9178 34.133 37.751 33.9233 37.5879C33.787 37.4821 33.6525 37.3764 33.5145 37.2742C33.199 37.0375 32.8799 36.8063 32.5536 36.5876C31.6698 35.996 30.7394 35.4617 29.7857 34.9992C26.8223 33.5632 23.6438 32.8013 20.3362 32.7189C20.1821 32.7243 17.2797 32.7278 17.2402 32.7207V37.7833C17.2402 39.2067 17.043 40.6194 16.6701 41.9801C16.6666 42.0051 16.6648 42.0284 16.6576 42.0535C16.6217 42.1808 16.5769 42.3045 16.5375 42.43C16.4855 42.6003 16.4335 42.7706 16.3743 42.9391C16.317 43.1077 16.2542 43.2726 16.1915 43.4393C16.1234 43.6204 16.0517 43.7979 15.9764 43.9771C15.9118 44.1277 15.8473 44.2765 15.7792 44.4253C15.6895 44.6189 15.5945 44.8107 15.4977 45.0008C15.4314 45.1316 15.365 45.2625 15.2933 45.3916C15.2664 45.4418 15.2431 45.4938 15.2145 45.5422C15.2019 45.5637 15.1858 45.578 15.1714 45.5978C15.0441 45.8218 14.9204 46.0477 14.7806 46.2664C14.6318 46.5013 14.379 46.6286 14.1191 46.6286C13.9757 46.6286 13.8305 46.5891 13.7014 46.5067C13.3375 46.2754 13.2281 45.7932 13.4594 45.4274C13.6225 45.1711 13.7713 44.9093 13.9165 44.644C13.9829 44.5221 14.0456 44.3984 14.1083 44.2729C14.1926 44.108 14.2751 43.9413 14.3522 43.7728C14.4167 43.6329 14.4776 43.4931 14.5368 43.3515C14.6013 43.1973 14.6641 43.0431 14.7233 42.8872C14.7824 42.7312 14.8416 42.5752 14.8954 42.4175C14.9438 42.2741 14.9886 42.1289 15.0334 41.9854C15.4493 40.6283 15.6716 39.2103 15.6716 37.7779V37.4893V33.09V32.7045H13.1206C12.6885 32.7045 12.3389 32.355 12.3389 31.9229C12.3389 31.4909 12.6885 31.1413 13.1206 31.1413H15.6716V28.6906V24.2913V19.892V15.4927C15.6716 15.0606 16.0212 14.711 16.4532 14.711C16.8853 14.711 17.2348 15.0606 17.2348 15.4927V16.2743V31.1449H17.2599C17.2743 31.1431 17.2868 31.1413 17.3012 31.1413C17.3765 31.1413 20.2556 31.1503 20.3954 31.1538C21.6378 31.1072 22.8658 30.9029 24.049 30.5425C24.1906 30.4995 24.3322 30.4529 24.472 30.4045C24.628 30.3507 24.784 30.2969 24.9382 30.2395C25.1013 30.1768 25.2626 30.1105 25.4222 30.0423C25.5513 29.9886 25.6803 29.9366 25.8076 29.8792C26.0461 29.7699 26.2827 29.6515 26.5157 29.5296C26.5641 29.5045 26.6126 29.483 26.661 29.4561C26.9585 29.2948 27.2525 29.1227 27.5394 28.9398C27.9033 28.7086 28.3855 28.8143 28.6186 29.1783C28.8499 29.5422 28.7441 30.0262 28.3802 30.2575C28.0772 30.4511 27.7671 30.6286 27.4533 30.8007C27.4408 30.8078 27.4318 30.8168 27.4193 30.824C27.3547 30.8598 27.2866 30.8885 27.2203 30.9244C27.041 31.0194 26.86 31.1108 26.6753 31.1969C26.5767 31.2435 26.4799 31.2883 26.3813 31.3331C26.1841 31.4227 25.9851 31.507 25.7861 31.5877C25.7036 31.6217 25.6194 31.654 25.5369 31.6863C25.4634 31.715 25.3899 31.7472 25.3164 31.7741C27.0858 32.1829 28.8068 32.7906 30.4633 33.5937C31.4816 34.0867 32.4783 34.6586 33.4213 35.2896C33.6579 35.4492 33.8874 35.6213 34.1204 35.7898C34.1527 35.8077 34.185 35.8239 34.2173 35.8454C34.2943 35.9009 34.3678 35.9619 34.4431 36.0193C34.5919 36.1304 34.7389 36.2451 34.8859 36.3599C35.1082 36.5338 35.3287 36.7113 35.5439 36.8923C35.6227 36.9586 35.7052 37.0196 35.7841 37.0859C35.8809 37.1684 35.9741 37.2562 36.0691 37.3405C36.1624 37.423 36.2556 37.5054 36.347 37.5897C36.5783 37.8012 36.8042 38.0181 37.0282 38.2369C37.0874 38.2942 37.1466 38.3498 37.2039 38.4072C37.2165 38.4215 37.2326 38.4341 37.2452 38.4466C37.2523 38.4538 37.2577 38.4627 37.2649 38.4699C37.5374 38.746 37.8045 39.0257 38.0626 39.3125C38.3513 39.6334 38.3244 40.1282 38.0035 40.4168V40.4186ZM42.6843 49.2298C42.6054 49.2549 42.5247 49.2674 42.4458 49.2674C42.1142 49.2674 41.8076 49.0559 41.7018 48.7243C41.2088 47.1843 40.5509 45.691 39.7442 44.2891C39.5291 43.9144 39.6581 43.4375 40.0328 43.2224C40.4057 43.0073 40.8844 43.1363 41.0995 43.511C41.9618 45.0097 42.6645 46.6053 43.1898 48.2492C43.3207 48.6615 43.0948 49.1007 42.6825 49.2316L42.6843 49.2298Z" fill="#1D1D1B"/>
<path d="M12.6277 61.9736H8.31803L4.80072 68.4059L4.85809 61.9934H1.07724L1.00195 75.9855H4.78279V70.1448L8.39332 75.9676H12.703L8.35568 69.2556L12.6277 61.9736Z" fill="#1D1D1B"/>
<path d="M16.9355 65.2119C13.7785 65.2119 11.6416 67.4618 11.6416 70.694C11.6416 73.9263 13.8162 76.2515 16.9355 76.2515C20.0548 76.2515 22.2473 73.9263 22.2473 70.6743C22.2473 67.4223 20.0351 65.2119 16.9355 65.2119ZM16.9534 73.1124C15.971 73.1124 15.2898 72.1856 15.2898 70.6743C15.2898 69.1631 15.971 68.3115 16.9337 68.3115C17.8964 68.3115 18.5597 69.2007 18.5597 70.694C18.5597 72.1874 17.8982 73.1142 16.9534 73.1142V73.1124Z" fill="#1D1D1B"/>
<path d="M29.3382 65.212C28.3558 65.212 27.4092 65.5526 26.6545 66.4221V62.0371H23.0439V75.988H26.6545V74.9859C27.411 75.8733 28.3558 76.2336 29.3579 76.2336C31.7781 76.2336 33.5546 74.0591 33.5546 70.6762C33.5546 67.2934 31.8157 65.2138 29.34 65.2138L29.3382 65.212ZM28.3163 73.1322C27.1439 73.1322 26.6527 71.8666 26.6527 70.7318C26.6527 69.4643 27.2192 68.3116 28.3163 68.3116C29.2611 68.3116 29.8849 69.1614 29.8849 70.6744C29.8849 72.2628 29.2808 73.1322 28.3163 73.1322Z" fill="#1D1D1B"/>
<path d="M38.8646 65.2118C37.5219 65.2118 36.3889 65.4 35.3491 65.7227L35.67 68.5767C36.4821 68.2934 37.4663 68.1034 38.4111 68.1034C39.6588 68.1034 40.2074 68.652 40.2074 69.6344V69.8047C39.5835 69.7473 38.714 69.7097 38.0704 69.7097C35.48 69.7097 34.252 70.8624 34.252 72.8667C34.252 75.0018 35.6126 76.2316 37.4663 76.2316C38.6943 76.2316 39.6785 75.6651 40.2253 74.6809V75.986H43.8358V69.785C43.8358 67.026 42.3999 65.21 38.8646 65.21V65.2118ZM40.2056 71.8663C40.1303 72.9814 39.6014 73.5102 38.7696 73.5102C38.1457 73.5102 37.7101 73.037 37.7101 72.4705C37.7101 71.7516 38.1457 71.411 39.0331 71.411C39.4867 71.411 39.865 71.4307 40.2056 71.4683V71.8663Z" fill="#1D1D1B"/>
<path d="M48.5824 65.4365H44.9521V75.9849H48.5824V65.4365Z" fill="#1D1D1B"/>
<path d="M48.6367 61.9736H44.8936V64.3795H48.6367V61.9736Z" fill="#1D1D1B"/>
<path d="M19.7365 62.5742H15.0342V64.6843H19.7365V62.5742Z" fill="#1D1D1B"/>
<path d="M1.00195 90.2846V77.9238H1.79613V90.2846H1.00195Z" fill="#1D1D1B"/>
<path d="M3.15137 85.5634C3.15137 82.8331 4.63036 80.9238 6.77982 80.9238C8.92929 80.9238 10.4406 82.7327 10.4406 85.5472C10.4406 88.3618 8.9759 90.2209 6.77982 90.2209C4.58375 90.2209 3.15137 88.3959 3.15137 85.5652V85.5634ZM9.63025 85.5634C9.63025 83.2687 8.49366 81.7108 6.77982 81.7108C5.06599 81.7108 3.95988 83.1844 3.95988 85.5634C3.95988 87.9423 5.1126 89.4159 6.79417 89.4159C8.47574 89.4159 9.62845 87.9244 9.62845 85.5634H9.63025Z" fill="#1D1D1B"/>
<path d="M15.2693 88.2237C17.0441 88.2237 18.0569 89.0268 18.0569 90.3678C18.0569 91.9759 16.7339 93.082 14.3962 93.082C12.4493 93.082 11.25 92.2286 11.25 90.7711C11.25 90.0003 11.7645 89.3137 12.4655 88.878C11.9205 88.6611 11.6085 88.1412 11.6247 87.4707C11.6247 86.8343 11.9832 86.3144 12.5282 86.0473C11.9671 85.5615 11.6552 84.7906 11.6552 83.819C11.6552 82.0442 12.7147 80.904 14.5056 80.904C15.004 80.904 15.4396 81.0044 15.7981 81.1891L17.6052 80.7373L17.8078 81.44L16.5152 81.7072C17.0441 82.1589 17.3721 82.8957 17.3721 83.8172C17.3721 85.592 16.2983 86.7322 14.5378 86.7322C13.9463 86.7322 13.4479 86.6156 13.0122 86.3969C12.5766 86.6318 12.374 86.9329 12.374 87.3022C12.374 87.8723 12.7487 88.2237 13.3547 88.2237H15.2711H15.2693ZM17.2628 90.418C17.2628 89.4965 16.4686 89.0107 15.0972 89.0107H13.0732C12.3884 89.4804 12.0137 90.0487 12.0137 90.6528C12.0137 91.7249 12.9172 92.277 14.4285 92.277C16.2033 92.277 17.2628 91.6245 17.2628 90.418ZM12.435 83.8029C12.435 85.142 13.1987 85.981 14.5217 85.981C15.8447 85.981 16.578 85.194 16.578 83.8208C16.578 82.4476 15.8304 81.6606 14.5217 81.6606C13.213 81.6606 12.435 82.4476 12.435 83.8046V83.8029Z" fill="#1D1D1B"/>
<path d="M19.3213 79.6991V77.9404H20.1621V79.6991H19.3213ZM19.3374 90.2833V81.0705H20.1316V90.2833H19.3374Z" fill="#1D1D1B"/>
<path d="M21.4229 89.5486L21.5788 88.7114C22.373 89.1632 23.2765 89.4141 24.2267 89.4141C25.3955 89.4141 26.2991 88.8279 26.2829 87.7559C26.2829 86.7681 25.6447 86.2661 24.1639 85.7803C22.373 85.2443 21.6882 84.5236 21.6882 83.2848C21.7043 81.7933 22.8104 80.9238 24.4131 80.9238C25.2539 80.9238 26.0015 81.1407 26.7347 81.476L26.5948 82.3132C25.9244 81.9277 25.1625 81.727 24.3826 81.727C23.2138 81.727 22.4985 82.297 22.4985 83.2167C22.4985 84.1364 23.0596 84.6079 24.5386 85.0919C26.3618 85.6942 27.1094 86.4311 27.1094 87.7559C27.0932 89.2976 25.8939 90.2191 24.2123 90.2191C23.1385 90.2191 22.235 89.9681 21.4246 89.5486H21.4229Z" fill="#1D1D1B"/>
<path d="M28.8077 87.9239V81.861H27.7178V81.325L27.9042 81.0901L29.229 79.2812H29.6019V81.074H32.0777V81.861H29.6019V87.7734C29.6019 88.8293 30.0698 89.4155 30.8783 89.4155C31.2996 89.4155 31.7819 89.299 32.1404 89.0641L32.3125 89.7848C31.8607 90.0519 31.2835 90.2204 30.7546 90.2204C29.5392 90.2204 28.8077 89.4495 28.8077 87.9257V87.9239Z" fill="#1D1D1B"/>
<path d="M33.7441 79.6991V77.9404H34.5849V79.6991H33.7441ZM33.7585 90.2833V81.0705H34.5527V90.2833H33.7585Z" fill="#1D1D1B"/>
<path d="M35.8945 85.5634C35.8945 82.7829 37.4363 80.9238 39.6019 80.9238C40.5054 80.9238 41.2834 81.1909 42.0633 81.761L41.7836 82.4638C41.0988 81.9779 40.4444 81.7108 39.6341 81.7108C37.906 81.7108 36.7066 83.1844 36.7066 85.5634C36.7066 87.9423 37.8755 89.4159 39.6341 89.4159C40.4444 89.4159 41.1131 89.1488 41.7997 88.6791L42.0651 89.3819C41.287 89.934 40.5233 90.2191 39.5893 90.2191C37.4399 90.2191 35.8981 88.4102 35.8981 85.5634H35.8945Z" fill="#1D1D1B"/>
<path d="M42.9023 89.5486L43.0583 88.7114C43.8525 89.1632 44.756 89.4141 45.7062 89.4141C46.875 89.4141 47.7785 88.8279 47.7624 87.7559C47.7624 86.7681 47.1242 86.2661 45.6434 85.7803C43.8525 85.2443 43.1677 84.5236 43.1677 83.2848C43.1838 81.7933 44.2899 80.9238 45.8926 80.9238C46.7334 80.9238 47.4809 81.1407 48.2142 81.476L48.0743 82.3132C47.4039 81.9277 46.642 81.727 45.8621 81.727C44.6933 81.727 43.978 82.297 43.978 83.2167C43.978 84.1364 44.5391 84.6079 46.0181 85.0919C47.8413 85.6942 48.5888 86.4311 48.5888 87.7559C48.5727 89.2976 47.3734 90.2191 45.6918 90.2191C44.618 90.2191 43.7144 89.9681 42.9041 89.5486H42.9023Z" fill="#1D1D1B"/>
</svg>
