<svg width="152" height="100" viewBox="0 0 152 100" fill="none" xmlns="http://www.w3.org/2000/svg">
<path d="M22.5314 77.0508H16.7748L12.077 85.644L12.1516 77.0749H7.10084L7 95.7718H12.0507V87.9677L16.8756 95.7455H22.6344L16.8252 86.7796L22.5314 77.0508Z" fill="#1D1D1B"/>
<path d="M28.277 81.4006C24.0593 81.4006 21.2051 84.4061 21.2051 88.7246C21.2051 93.0431 24.1097 96.1494 28.277 96.1494C32.4442 96.1494 35.3729 93.0431 35.3729 88.6983C35.3729 84.3535 32.4179 81.3984 28.277 81.3984V81.4006ZM28.3033 91.958C26.9902 91.958 26.0804 90.7217 26.0804 88.7005C26.0804 86.6793 26.9902 85.5438 28.277 85.5438C29.5637 85.5438 30.4494 86.7319 30.4494 88.7268C30.4494 90.7217 29.5659 91.9602 28.3033 91.9602V91.958Z" fill="#1D1D1B"/>
<path d="M44.8527 81.3427C43.5396 81.3427 42.2769 81.7964 41.2663 82.9583V77.0986H36.4414V95.7385H41.2663V94.3991C42.2769 95.5851 43.5396 96.0652 44.879 96.0652C48.1124 96.0652 50.4865 93.1606 50.4865 88.6403C50.4865 84.1201 48.1628 81.3405 44.8549 81.3405L44.8527 81.3427ZM43.4892 91.9264C41.924 91.9264 41.2663 90.234 41.2663 88.7192C41.2663 87.0269 42.0248 85.4858 43.4892 85.4858C44.7518 85.4858 45.5849 86.6214 45.5849 88.6425C45.5849 90.7645 44.776 91.9264 43.4892 91.9264Z" fill="#1D1D1B"/>
<path d="M57.5701 81.3984C55.7769 81.3984 54.2621 81.6505 52.8723 82.0802L53.302 85.8945C54.3871 85.5153 55.7002 85.2632 56.9651 85.2632C58.6311 85.2632 59.3655 85.9954 59.3655 87.3085V87.5365C58.5325 87.4597 57.3706 87.4093 56.5113 87.4093C53.0521 87.4093 51.4102 88.9504 51.4102 91.627C51.4102 94.4812 53.2274 96.1231 55.7046 96.1231C57.3465 96.1231 58.6596 95.3646 59.3918 94.0515V95.7943H64.2167V87.5102C64.2167 83.823 62.2964 81.3984 57.5745 81.3984H57.5701ZM59.3633 90.2898C59.2624 91.7805 58.5544 92.4863 57.4429 92.4863C56.6099 92.4863 56.029 91.855 56.029 91.0965C56.029 90.1363 56.6099 89.6826 57.7981 89.6826C58.4031 89.6826 58.9095 89.7089 59.3633 89.7593V90.2898Z" fill="#1D1D1B"/>
<path d="M70.5805 81.6885H65.7314V95.7818H70.5805V81.6885Z" fill="#1D1D1B"/>
<path d="M70.639 77.0508H65.6387V80.2645H70.639V77.0508Z" fill="#1D1D1B"/>
<path d="M31.9936 77.8799H25.7109V80.699H31.9936V77.8799Z" fill="#1D1D1B"/>
<path d="M74.264 77.0508H73.0605V95.7718H74.264V77.0508Z" fill="#1D1D1B"/>
<path d="M81.8102 81.5908C78.5548 81.5908 76.3145 84.4823 76.3145 88.6189C76.3145 92.7554 78.6031 95.671 81.8102 95.671C85.0173 95.671 87.3541 92.7533 87.3541 88.5926C87.3541 84.4318 85.0655 81.5908 81.8102 81.5908ZM81.8343 94.4522C79.287 94.4522 77.5399 92.0671 77.5399 88.6167C77.5399 85.1662 79.3089 82.7812 81.8102 82.7812C84.3114 82.7812 86.1265 85.1399 86.1265 88.6167C86.1265 92.0934 84.3574 94.4522 81.8343 94.4522Z" fill="#1D1D1B"/>
<path d="M94.6701 92.6386H91.7677C90.847 92.6386 90.2815 92.1059 90.2815 91.2444C90.2815 90.6854 90.5883 90.2294 91.2482 89.8743C91.908 90.2031 92.6643 90.3829 93.5609 90.3829C96.2266 90.3829 97.8553 88.6576 97.8553 85.9679C97.8553 84.5715 97.3599 83.4557 96.5576 82.7717L98.5152 82.3662L98.2083 81.3008L95.4725 81.9869C94.9288 81.7085 94.269 81.5551 93.5149 81.5551C90.801 81.5551 89.1985 83.2803 89.1985 85.9701C89.1985 87.441 89.6698 88.6072 90.5204 89.3438C89.694 89.7493 89.1525 90.5363 89.1525 91.5009C89.1284 92.5158 89.6019 93.3028 90.4261 93.6316C89.3651 94.2915 88.5869 95.3306 88.5869 96.499C88.5869 98.7065 90.4042 99.9998 93.3527 99.9998C96.8908 99.9998 98.8966 98.325 98.8966 95.8895C98.8966 93.8596 97.3621 92.643 94.6745 92.643L94.6701 92.6386ZM90.3779 85.9416C90.3779 83.8875 91.5573 82.695 93.539 82.695C95.5207 82.695 96.6518 83.9643 96.6518 85.9679C96.6518 87.9715 95.4725 89.2408 93.539 89.2408C91.6055 89.2408 90.3779 87.9715 90.3779 85.9438V85.9416ZM93.3965 98.7788C91.1079 98.7788 89.74 97.9414 89.74 96.317C89.74 95.4029 90.3056 94.5414 91.3446 93.8311H94.4115C96.4874 93.8311 97.6909 94.5677 97.6909 95.9619C97.6909 97.7879 96.0863 98.7788 93.3987 98.7788H93.3965Z" fill="#1D1D1B"/>
<path d="M102.023 81.7861H100.819V95.7392H102.023V81.7861Z" fill="#1D1D1B"/>
<path d="M102.07 77.0986H100.796V79.7621H102.07V77.0986Z" fill="#1D1D1B"/>
<path d="M108.714 87.9086C106.473 87.1742 105.623 86.4114 105.623 85.0676C105.623 83.7238 106.708 82.8097 108.477 82.8097C109.656 82.8097 110.812 83.1144 111.827 83.6975L112.039 82.4282C110.93 81.9196 109.799 81.5908 108.523 81.5908C106.094 81.5908 104.419 82.9105 104.395 85.1684C104.395 87.0449 105.432 88.1366 108.146 88.9477C110.386 89.6843 111.355 90.4449 111.355 91.9422C111.38 93.5666 110.012 94.4544 108.24 94.4544C106.802 94.4544 105.432 94.0729 104.231 93.389L103.994 94.6582C105.222 95.2918 106.59 95.6732 108.216 95.6732C110.764 95.6732 112.581 94.2768 112.605 91.9444C112.605 89.9407 111.472 88.8249 108.712 87.9108L108.714 87.9086Z" fill="#1D1D1B"/>
<path d="M118.303 94.483C117.075 94.483 116.367 93.5952 116.367 91.9971V83.0422H120.118V81.8496H116.367V79.1357H115.801L113.795 81.8759L113.513 82.2311V83.0422H115.163V92.2251C115.163 94.5334 116.273 95.7018 118.112 95.7018C118.914 95.7018 119.787 95.4475 120.471 95.042L120.212 93.9503C119.668 94.3054 118.938 94.483 118.3 94.483H118.303Z" fill="#1D1D1B"/>
<path d="M123.941 77.0986H122.667V79.7621H123.941V77.0986Z" fill="#1D1D1B"/>
<path d="M123.877 81.7861H122.674V95.7392H123.877V81.7861Z" fill="#1D1D1B"/>
<path d="M131.559 82.7834C132.786 82.7834 133.777 83.1889 134.814 83.9255L135.239 82.8601C134.06 81.9986 132.88 81.5908 131.513 81.5908C128.233 81.5908 125.898 84.4077 125.898 88.6189C125.898 92.83 128.233 95.671 131.491 95.671C132.907 95.671 134.062 95.2392 135.241 94.4018L134.84 93.3364C133.801 94.0466 132.788 94.4522 131.561 94.4522C128.895 94.4522 127.126 92.1438 127.126 88.6167C127.126 85.0895 128.943 82.7812 131.561 82.7812L131.559 82.7834Z" fill="#1D1D1B"/>
<path d="M141.251 87.9086C139.011 87.1742 138.16 86.4114 138.16 85.0676C138.16 83.7238 139.245 82.8097 141.014 82.8097C142.194 82.8097 143.349 83.1144 144.364 83.6975L144.576 82.4282C143.467 81.9196 142.336 81.5908 141.06 81.5908C138.631 81.5908 136.957 82.9105 136.932 85.1684C136.932 87.0449 137.969 88.1366 140.683 88.9477C142.924 89.6843 143.892 90.4449 143.892 91.9422C143.917 93.5666 142.549 94.4544 140.777 94.4544C139.339 94.4544 137.969 94.0729 136.768 93.389L136.531 94.6582C137.759 95.2918 139.127 95.6732 140.753 95.6732C143.301 95.6732 145.118 94.2768 145.142 91.9444C145.142 89.9407 144.009 88.8249 141.249 87.9108L141.251 87.9086Z" fill="#1D1D1B"/>
<path d="M104.407 65.8983C104.407 53.46 97.7476 42.4883 87.8106 36.3876C91.7433 32.1107 94.1722 26.4286 94.2226 20.2007C94.2226 20.1766 94.2226 20.0889 94.2226 19.9924V16.2H88.7225V20.1064C88.7159 20.9109 88.6567 21.722 88.5471 22.5156C88.4835 22.9781 88.0868 23.3135 87.633 23.3135C87.5913 23.3135 87.5497 23.3114 87.5059 23.3048C86.9995 23.2346 86.6465 22.7699 86.7167 22.2635C86.8153 21.5467 86.8679 20.8145 86.8745 20.0889V16.1978H81.2999V20.0867C81.2539 25.4553 77.4351 29.9536 72.3866 31.065V0H66.8668V2.70731C66.8668 3.21808 66.4525 3.6302 65.9439 3.6302C65.4353 3.6302 65.021 3.21589 65.021 2.70731V0H59.4661V31.3018H55.5378V36.8106C55.5378 36.8106 55.5422 36.8106 55.5444 36.8106H58.3152C58.826 36.8106 59.2381 37.2249 59.2381 37.7335C59.2381 38.2421 58.8238 38.6564 58.3152 38.6564H55.5444C55.5444 38.6564 55.54 38.6564 55.5378 38.6564V44.2245H59.4661V44.6783C59.4661 50.893 54.4132 55.981 48.2029 56.0205H47.6768V61.5535H48.2445C48.9372 61.5491 49.6387 61.5008 50.3249 61.411C50.8335 61.3452 51.2938 61.7025 51.3596 62.2067C51.4253 62.7131 51.068 63.1757 50.5616 63.2436C49.8009 63.3423 49.0227 63.3949 48.2489 63.4014H48.1503C48.1503 63.4014 48.1327 63.4014 48.124 63.4014H47.6768V68.9454H48.124C48.2138 68.9454 48.2818 68.9454 48.2862 68.9454C61.5772 68.8577 72.391 57.9715 72.391 44.6805V44.378C83.1172 45.6626 91.4868 54.8564 91.4868 65.8961H97.0702C97.0702 65.8961 97.0702 65.8961 97.0702 65.8939C97.0702 64.9973 97.0263 64.0964 96.9409 63.2151C96.8904 62.7065 97.2631 62.2549 97.7695 62.2067C98.2868 62.1541 98.7296 62.529 98.7779 63.0354C98.8699 63.9758 98.916 64.9381 98.916 65.8939C98.916 65.8939 98.916 65.8939 98.916 65.8961H104.407V65.8983ZM82.7314 31.0321C83.8033 29.8001 84.689 28.4235 85.3641 26.9438C85.5768 26.479 86.1248 26.2751 86.5873 26.4856C87.0521 26.6982 87.256 27.2441 87.0455 27.7088C86.298 29.3507 85.3159 30.8765 84.1256 32.2444C83.9436 32.4548 83.6871 32.5622 83.4285 32.5622C83.2136 32.5622 82.9966 32.4877 82.8234 32.3343C82.4376 31.9989 82.3982 31.4157 82.7336 31.0299L82.7314 31.0321ZM65.0188 7.91148C65.0188 7.40071 65.4331 6.98858 65.9417 6.98858C66.4503 6.98858 66.8646 7.4029 66.8646 7.91148V13.1113C66.8646 13.622 66.4503 14.0342 65.9417 14.0342C65.4331 14.0342 65.0188 13.6198 65.0188 13.1113V7.91148ZM60.4065 58.8198C59.0233 60.0211 57.48 61.0098 55.8184 61.7595C55.6956 61.8143 55.5663 61.8406 55.4391 61.8406C55.0862 61.8406 54.7508 61.639 54.5974 61.297C54.3869 60.8322 54.5952 60.2842 55.0599 60.0738C56.5571 59.3986 57.9492 58.5064 59.1965 57.4256C59.5823 57.0902 60.1654 57.1319 60.5008 57.5177C60.8362 57.9035 60.7946 58.4866 60.4087 58.822L60.4065 58.8198ZM91.4101 47.7758C91.2347 47.9336 91.0133 48.0125 90.7941 48.0125C90.5398 48.0125 90.2899 47.9095 90.1057 47.7056C89.7966 47.3615 89.4788 47.0283 89.1543 46.6994C89.093 46.6381 89.0272 46.5767 88.9658 46.5153C88.7181 46.2698 88.466 46.0308 88.2095 45.7963C88.1087 45.702 88.0057 45.6121 87.9026 45.5201C87.7119 45.3513 87.5168 45.1847 87.3195 45.0202C87.0806 44.8186 86.8372 44.6235 86.5895 44.4306C86.4295 44.3056 86.2695 44.1807 86.1073 44.0601C85.7346 43.7817 85.3575 43.5077 84.9717 43.249C83.9283 42.5497 82.8278 41.9183 81.6989 41.3725C78.1958 39.6736 74.4385 38.7748 70.5299 38.6762C70.3479 38.6805 66.9172 38.6871 66.8712 38.6783V44.6629C66.8712 46.3443 66.6388 48.0147 66.1982 49.6238C66.1938 49.6523 66.1916 49.6808 66.1829 49.7093C66.1412 49.8605 66.0864 50.0052 66.0404 50.1543C65.979 50.3559 65.9176 50.5576 65.8475 50.7571C65.7795 50.9566 65.705 51.1517 65.6304 51.349C65.5493 51.5616 65.4638 51.7743 65.3761 51.9847C65.3016 52.1623 65.2227 52.3398 65.1416 52.5152C65.0364 52.7432 64.9246 52.969 64.8084 53.1948C64.7295 53.3504 64.6505 53.5061 64.5672 53.6573C64.5344 53.7165 64.5081 53.7779 64.4752 53.8371C64.462 53.8612 64.4401 53.8809 64.4248 53.9028C64.2735 54.1681 64.1266 54.4355 63.9644 54.692C63.789 54.9704 63.4887 55.1217 63.184 55.1217C63.0152 55.1217 62.8442 55.0757 62.6908 54.977C62.2589 54.703 62.1318 54.133 62.4058 53.7012C62.5987 53.3987 62.7741 53.0896 62.9472 52.7761C63.0262 52.6314 63.1007 52.4845 63.1752 52.3377C63.2761 52.1426 63.3725 51.9453 63.4646 51.748C63.5413 51.5836 63.6137 51.4169 63.6838 51.2503C63.7605 51.0684 63.8329 50.8864 63.9052 50.7023C63.9754 50.5182 64.0455 50.334 64.1091 50.1477C64.1661 49.9789 64.2187 49.8079 64.2713 49.6369C64.7645 48.0323 65.0254 46.3575 65.0254 44.6651V44.3231V39.1234V38.6696H62.009C61.4982 38.6696 61.0861 38.2553 61.0861 37.7467C61.0861 37.2381 61.5004 36.8238 62.009 36.8238H65.0254V33.9258V28.726V23.5262V18.3264C65.0254 17.8156 65.4397 17.4035 65.9483 17.4035C66.4569 17.4035 66.8712 17.8178 66.8712 18.3264V19.2493V36.826H66.9019C66.9172 36.8238 66.9348 36.8216 66.9501 36.8216C67.04 36.8216 70.4422 36.8326 70.6066 36.8369C72.0753 36.7821 73.5265 36.5388 74.9251 36.1135C75.0939 36.0631 75.2605 36.0083 75.4249 35.9513C75.6091 35.8877 75.7932 35.8242 75.9774 35.7562C76.1703 35.6839 76.361 35.6028 76.5495 35.5238C76.7008 35.4603 76.8542 35.3989 77.0033 35.3309C77.2861 35.2016 77.5645 35.0635 77.8385 34.9188C77.8955 34.8881 77.9547 34.864 78.0095 34.8333C78.3624 34.6426 78.7088 34.4387 79.0486 34.2217C79.4782 33.9477 80.0504 34.0726 80.3244 34.5045C80.5984 34.9341 80.4735 35.5063 80.0416 35.7803C79.6843 36.0083 79.316 36.2187 78.9455 36.4226C78.9324 36.4314 78.9192 36.4423 78.9039 36.4511C78.8271 36.4928 78.746 36.5278 78.6693 36.5695C78.4567 36.6813 78.2418 36.7887 78.027 36.8917C77.9108 36.9465 77.7946 36.9992 77.6785 37.0518C77.4461 37.157 77.2115 37.2556 76.9748 37.3521C76.8761 37.3916 76.7797 37.431 76.6788 37.4683C76.5912 37.5012 76.5057 37.5406 76.418 37.5713C78.5093 38.0558 80.5436 38.7726 82.5034 39.7218C83.7069 40.3049 84.884 40.9801 85.9998 41.7254C86.2804 41.914 86.5501 42.1178 86.8263 42.3151C86.8658 42.3349 86.903 42.3546 86.9403 42.3809C87.0302 42.4467 87.1178 42.519 87.2077 42.587C87.3831 42.7185 87.5563 42.8522 87.7295 42.9881C87.9925 43.1942 88.2512 43.4024 88.5077 43.6173C88.5997 43.6962 88.6984 43.7685 88.7904 43.8474C88.9044 43.9461 89.0141 44.0491 89.1259 44.1478C89.2355 44.2464 89.3451 44.3429 89.4547 44.4415C89.7287 44.6914 89.9961 44.9479 90.2592 45.2066C90.3271 45.2745 90.3995 45.3403 90.4674 45.4083C90.4828 45.4236 90.5003 45.4389 90.5157 45.4565C90.5244 45.4653 90.531 45.4762 90.5376 45.485C90.8598 45.8094 91.1755 46.1404 91.4802 46.4802C91.8222 46.8595 91.7893 47.4448 91.4101 47.7846V47.7758ZM96.9409 58.1907C96.8466 58.2214 96.7523 58.2345 96.6603 58.2345C96.2701 58.2345 95.9062 57.9846 95.779 57.5922C95.1981 55.7728 94.4199 54.0081 93.4663 52.3486C93.212 51.9058 93.3655 51.3424 93.8083 51.0881C94.2489 50.8338 94.8145 50.9873 95.0688 51.4301C96.0859 53.2014 96.9189 55.0866 97.5393 57.0311C97.6949 57.5177 97.4275 58.0372 96.9409 58.1929V58.1907Z" fill="#1D1D1B"/>
</svg>
